<?xml version="1.0" encoding="UTF-8"?>
<svg width="635px" height="372px" viewBox="0 0 635 372" version="1.1" xmlns="http://www.w3.org/2000/svg" xmlns:xlink="http://www.w3.org/1999/xlink">
    <!-- Generator: Sketch 52 (66869) - http://www.bohemiancoding.com/sketch -->
    <title>AskAGirl_Logo_White_RGB</title>
    <desc>Created with Sketch.</desc>
    <g id="Page-1" stroke="none" stroke-width="1" fill="none" fill-rule="evenodd">
        <g id="AskAGirl_Logo_White_RGB" transform="translate(-1.000000, -2.000000)" fill="#FFFFFF">
            <g id="g10" transform="translate(318.000000, 187.333330) scale(-1, 1) rotate(-180.000000) translate(-318.000000, -187.333330) translate(0.000000, 0.333330)">
                <g id="g14">
                    <g id="g16-Clipped">
                        <g id="g16" transform="translate(-0.000005, -0.000002)">
                            <g id="g22" transform="translate(147.109330, 163.303996)">
                                <path d="M353.333325,186.666662 C353.322658,200.219995 345.833325,208.779995 333.759992,209.010661 L206.630662,209.010661 L135.218663,54.9746653 C132.38533,54.9599986 111.918664,54.9866653 102.474664,54.829332 C98.1906642,54.7586653 94.025331,53.0199987 90.7453311,49.9333321 C81.3373313,41.079999 71.9773315,31.9093325 62.9279984,23.0399994 C62.9279984,23.0399994 55.4186653,15.6973329 55.213332,15.5039996 C55.205332,15.8693329 55.237332,30.7933326 55.2306653,37.8986657 L55.2239986,54.973332 C55.2239986,54.973332 27.150666,54.9679986 20.8013328,54.9759986 C15.4213329,54.985332 14.3226663,57.1226652 14.0066663,61.5479985 L13.9399997,128.499997 L13.9626663,158.811996 C13.9679997,165.241329 16.2173329,166.502663 20.3346662,166.582663 L168.909329,166.723996 L176.198662,181.309329 L20.2173328,181.169329 C8.22133313,180.941329 0.761333314,172.379996 0.749333315,158.825329 L0.726666649,128.50533 L0.847999979,60.3279985 C1.72266662,47.8613321 9.17466644,40.407999 20.7826661,40.3893323 C27.1413327,40.3813323 42.0173323,40.3853323 42.0173323,40.3853323 C42.0173323,40.3853323 42.0333323,24.1399994 41.9933323,16.9986662 C41.9733323,13.3186663 41.9293323,5.66399986 48.8546654,1.67733329 C50.7213321,0.605333318 52.6359987,0.0586666652 54.5466653,0.0586666652 C59.3719985,0.0586666652 62.8479984,3.45999991 64.7159984,5.28666653 C64.7159984,5.28666653 90.1026644,30.1533326 99.3186642,38.8306657 C100.267997,39.7213323 101.459997,40.2213323 102.673331,40.2413323 C111.998664,40.399999 135.662663,40.3746657 139.563997,40.4293323 L143.746663,40.491999 L215.113328,194.423995 L333.639992,194.423995 C337.838658,194.343995 340.115991,193.081329 340.121325,186.653329 C340.121325,186.653329 340.110658,90.1013311 340.087991,89.7146644 C340.087991,89.7146644 338.630658,82.8266646 333.283992,82.8173313 C326.929325,82.8053313 298.859993,82.8173313 298.859993,82.8173313 C298.859993,82.8173313 298.877326,43.7093322 298.869326,43.3439989 C298.662659,43.5346656 272.689327,68.9733316 263.339993,77.7719981 C260.065327,80.8546646 255.899994,82.7413313 251.609327,82.8173313 C236.543994,83.0719979 182.162662,82.8573313 182.162662,82.8573313 L175.471996,68.082665 C175.471996,68.082665 235.122661,68.3613316 251.407994,68.082665 C252.623994,68.0613316 253.81466,67.5613316 254.761327,66.6693317 C264.055993,57.9226652 289.369326,33.1253325 289.369326,33.1253325 C291.822659,30.7293326 297.565326,25.1173327 305.227992,29.5186659 C312.153326,33.5066658 312.109326,41.159999 312.087992,44.8373322 C312.049326,51.9799987 312.065326,68.2253316 312.065326,68.2253316 C312.065326,68.2253316 326.943992,68.222665 333.303992,68.230665 C344.909325,68.2493316 352.358658,75.6573314 353.227991,88.0613311 L353.333325,186.666662 Z" id="path24"></path>
                            </g>
                            <path d="M635.075984,3.23733325 L617.865318,3.23733325 L617.865318,132.43733 L635.075984,132.43733 L635.075984,3.23733325 Z M556.897319,77.7439981 L574.107986,77.7439981 L574.107986,71.0879982 C577.269319,74.4026648 580.074652,76.6719981 582.522652,77.8973314 C585.021319,79.1706647 587.978652,79.807998 591.395985,79.807998 C595.934652,79.807998 600.677318,78.3293314 605.623985,75.3719981 L597.745318,59.6146652 C594.479985,61.9599985 591.293319,63.1333318 588.183985,63.1333318 C578.799986,63.1333318 574.107986,56.0439986 574.107986,41.867999 L574.107986,3.23733325 L556.897319,3.23733325 L556.897319,77.7439981 Z M535.095987,3.23733325 L517.88532,3.23733325 L517.88532,77.7439981 L535.095987,77.7439981 L535.095987,3.23733325 Z M515.282654,108.725331 C515.282654,111.731997 516.378654,114.334664 518.57332,116.527997 C520.763987,118.718664 523.391987,119.814664 526.451987,119.814664 C529.56132,119.814664 532.21332,118.718664 534.406653,116.527997 C536.599987,114.38533 537.695987,111.757331 537.695987,108.647997 C537.695987,105.535997 536.599987,102.883997 534.406653,100.691997 C532.26532,98.4986642 529.638653,97.4039976 526.527987,97.4039976 C523.41732,97.4039976 520.763987,98.4986642 518.57332,100.691997 C516.378654,102.883997 515.282654,105.562664 515.282654,108.725331 Z M449.957322,64.7399984 L498.761321,64.7399984 L498.761321,60.8386651 C498.761321,51.965332 497.715988,44.1106656 495.625321,37.2773324 C493.583988,30.9546659 490.142654,25.0373327 485.298655,19.5306662 C474.333321,7.18933315 460.385322,1.01866664 443.455989,1.01866664 C426.931989,1.01866664 412.781323,6.98533316 400.99999,18.9186662 C389.21999,30.9039992 383.329324,45.2839989 383.329324,62.0626651 C383.329324,79.1973314 389.321324,93.7306643 401.306657,105.663997 C413.290656,117.647997 427.874656,123.639997 445.061322,123.639997 C454.291989,123.639997 462.910655,121.75333 470.915988,117.979997 C478.566655,114.20533 486.087988,108.085331 493.481321,99.6213308 L480.785321,87.4586645 C471.093322,100.359997 459.289322,106.811997 445.367989,106.811997 C432.871989,106.811997 422.391989,102.502664 413.926656,93.8839977 C405.462657,85.4173312 401.230657,74.8106648 401.230657,62.0626651 C401.230657,48.9053321 405.945323,38.067999 415.381323,29.5519993 C424.201323,21.6453328 433.763989,17.6946662 444.066656,17.6946662 C452.837322,17.6946662 460.715988,20.6506662 467.702655,26.5693327 C474.690655,32.5333325 478.591988,39.6746657 479.407988,47.9866655 L449.957322,47.9866655 L449.957322,64.7399984 Z M306.513326,48.6773321 L324.873325,88.8359978 L342.389325,48.6773321 L306.513326,48.6773321 Z M325.178659,128.766663 L266.735993,3.23733325 L285.935993,3.23733325 L299.094659,31.9226659 L349.657325,31.9226659 L362.049324,3.23733325 L381.554657,3.23733325 L325.178659,128.766663 Z M40.867999,48.6773321 L59.2266652,88.8359978 L76.7426647,48.6773321 L40.867999,48.6773321 Z M1.08933331,3.23733325 L20.2893328,3.23733325 L33.4479992,31.9226659 L84.0106646,31.9226659 L96.4026643,3.23733325 L115.907997,3.23733325 L59.5306652,128.766663 L1.08933331,3.23733325 Z M208.162661,132.43733 L208.162661,53.6466653 L232.409328,77.7439981 L255.511994,77.7439981 L223.154661,46.4573322 L257.883994,3.23733325 L235.546661,3.23733325 L210.915995,34.6773325 L208.162661,31.9226659 L208.162661,3.23733325 L190.950662,3.23733325 L190.950662,132.43733 L208.162661,132.43733 Z M170.678662,65.0439984 L156.450663,57.4719986 C154.206663,62.0626651 151.427996,64.3573317 148.11333,64.3573317 C146.531996,64.3573317 145.18133,63.8346651 144.058663,62.7893318 C142.93733,61.7439985 142.37733,60.4053318 142.37733,58.7733319 C142.37733,55.9159986 145.690663,53.0839987 152.32133,50.2826654 C161.449329,46.3546655 167.593329,42.7346656 170.755996,39.4186657 C173.917329,36.1039991 175.498662,31.6413325 175.498662,26.0319993 C175.498662,18.8426662 172.846662,12.825333 167.543996,7.9799998 C162.391996,3.39066658 156.170663,1.09466664 148.878663,1.09466664 C136.383997,1.09466664 127.535997,7.18933315 122.334664,19.3773328 L137.022663,26.186666 C139.06133,22.6173328 140.61733,20.3466662 141.68933,19.3773328 C143.77733,17.4399996 146.27733,16.4719996 149.18533,16.4719996 C154.998663,16.4719996 157.905329,19.1226662 157.905329,24.4266661 C157.905329,27.486666 155.661329,30.3413326 151.17333,32.9946658 C149.438663,33.8613325 147.70533,34.7013325 145.971996,35.5186658 C144.23733,36.3333324 142.478663,37.1746657 140.694663,38.0426657 C135.694663,40.4906657 132.175997,42.9386656 130.138663,45.3866655 C127.535997,48.4959988 126.235997,52.501332 126.235997,57.3959986 C126.235997,63.8706651 128.454663,69.2266649 132.890663,73.4613315 C137.42933,77.6933314 142.93733,79.807998 149.414663,79.807998 C158.949329,79.807998 166.038663,74.8879981 170.678662,65.0439984 Z" id="path26" fill-rule="nonzero"></path>
                        </g>
                    </g>
                </g>
            </g>
        </g>
    </g>
</svg>